# xmcd CD database file
#
# Track frame offsets:
#	150
#	11359
#	24232
#	36817
#	51525
#	68895
#	82285
#	100025
#	121179
#	143940
#	165925
#	187567
#	207222
#	220680
#	238077
#
# Disc length: 3361 seconds
#
# Revision: 6
# Processed by: cddbd v1.5.2PL0 Copyright (c) Steve Scherf et al.
# Submitted via: CDex 1.51
#
DISCID=c00d1f0f
DTITLE=Various Artist - American Folk Blues Festival '63 (Part 1) [CD2] (Vanguard)
DYEAR=0
DGENRE=Blues
TTITLE0=Memphis Slim - The Blues is Everywhere
TTITLE1=M. Slim, W. Dixon, M. 'Guitar' Murphy, Billie Stepney - John Henry
TTITLE2=M. Slim, W. Dixon, M. 'Guitar' Murphy, Billie Stepney - Wish Me Well
TTITLE3=M. Slim, W. Dixon, M. 'Guitar' Murphy, Billie Stepney - Memphis Boogie
TTITLE4=Muddy Waters - My Captain
TTITLE5=Muddy Waters - Catfish Blues
TTITLE6=M. Waters, Otis Spann, W. Dixon, M. Murphy, B. Stepney - Blow Wind Blow
TTITLE7=M. Waters, O. Spann, W. Dixon, M. Murphy, B. Stepney - My Home is In the Delta
TTITLE8=M. Waters, O. Spann, W. Dixon, M. Murphy, B. Stepney - Five Long Years
TTITLE9=Sonny Boy Williamson, O. Spann, W. Dixon, M. Murphy,B. Stepney - That's All I Want, Baby
TTITLE10=Sonny Boy Williamson, O. Spann, W. Dixon, M. Murphy,B. Stepney - Don't Misuse Me
TTITLE11=Sonny Boy Williamson, O. Spann, W. Dixon, M. Murphy,B. Stepney - I Don't Know
TTITLE12=Sonny Boy Williamson - I'm Gettin' Tired
TTITLE13=O. Spann, W. Dixon, M. Murphy, B. Stepney, Sonny Boy Williamson - Goin' Down Slow
TTITLE14=Sonny Boy Williamson - Sonny Boy's Harmonica Blues
EXTD=YEAR: 0
EXTT0=
EXTT1=
EXTT2=
EXTT3=
EXTT4=
EXTT5=
EXTT6=
EXTT7=
EXTT8=
EXTT9=
EXTT10=
EXTT11=
EXTT12=
EXTT13=
EXTT14=
PLAYORDER=
